<?xml version="1.0" encoding="utf-8"?>
<!-- Generator: Adobe Illustrator 14.0.0, SVG Export Plug-In . SVG Version: 6.00 Build 43363)  -->
<!DOCTYPE svg PUBLIC "-//W3C//DTD SVG 1.1//EN" "http://www.w3.org/Graphics/SVG/1.1/DTD/svg11.dtd">
<svg version="1.1" id="Layer_1" xmlns="http://www.w3.org/2000/svg" xmlns:xlink="http://www.w3.org/1999/xlink" x="0px" y="0px"
	 width="157.437px" height="38.996px" viewBox="0 0 157.437 38.996" enable-background="new 0 0 157.437 38.996"
	 xml:space="preserve">
<path fill="#FFFFFF" d="M32.519,37.996H8.479C6.008,37.996,4,36.119,4,33.811V5.188C4,2.88,6.008,1.001,8.479,1.001h24.039
	c2.47,0,4.48,1.877,4.48,4.187v28.623C36.998,36.119,34.987,37.996,32.519,37.996L32.519,37.996z M10.029,31.969h20.938V7.032
	H10.029V31.969L10.029,31.969z"/>
<circle fill="#21D196" cx="20.499" cy="35.154" r="1.828"/>
<path fill="#21D196" d="M20.499,24.107c-0.818,0-1.588-0.396-2.064-1.063L8.131,8.639c-0.813-1.14-0.552-2.726,0.59-3.542
	c1.139-0.815,2.726-0.552,3.539,0.588l8.24,11.523l8.24-11.522c0.813-1.14,2.399-1.403,3.539-0.588
	c1.141,0.815,1.403,2.4,0.589,3.541L22.565,23.046C22.086,23.713,21.318,24.107,20.499,24.107L20.499,24.107z"/>
</svg>
