<?xml version="1.0" encoding="utf-8"?>
<!-- Generator: Adobe Illustrator 14.0.0, SVG Export Plug-In . SVG Version: 6.00 Build 43363)  -->
<!DOCTYPE svg PUBLIC "-//W3C//DTD SVG 1.1//EN" "http://www.w3.org/Graphics/SVG/1.1/DTD/svg11.dtd">
<svg version="1.1" id="Layer_1" xmlns="http://www.w3.org/2000/svg" xmlns:xlink="http://www.w3.org/1999/xlink" x="0px" y="0px"
	 width="157.437px" height="38.996px" viewBox="0 0 157.437 38.996" enable-background="new 0 0 157.437 38.996"
	 xml:space="preserve">
<g>
	<path fill="#0072C6" d="M32.519,37.996H8.479C6.008,37.996,4,36.119,4,33.81V5.188c0-2.308,2.008-4.187,4.479-4.187h24.039
		c2.47,0,4.48,1.877,4.48,4.187V33.81C36.998,36.119,34.987,37.996,32.519,37.996L32.519,37.996z M10.029,31.969h20.938V7.032
		H10.029V31.969L10.029,31.969z"/>
	<circle fill="#21D196" cx="20.499" cy="35.154" r="1.828"/>
	<path fill="#21D196" d="M20.499,24.107c-0.818,0-1.588-0.396-2.064-1.062L8.131,8.639c-0.813-1.14-0.552-2.726,0.59-3.542
		c1.139-0.815,2.726-0.552,3.539,0.588L20.5,17.208l8.24-11.522c0.813-1.14,2.399-1.403,3.539-0.588
		c1.141,0.815,1.403,2.4,0.589,3.541L22.565,23.046C22.086,23.713,21.318,24.107,20.499,24.107L20.499,24.107z"/>
	<path fill="#0072C6" d="M66.228,26.885c0,0.074-0.021,0.143-0.062,0.202c-0.041,0.059-0.116,0.109-0.223,0.146
		c-0.106,0.037-0.253,0.067-0.433,0.09c-0.18,0.023-0.41,0.034-0.688,0.034c-0.27,0-0.494-0.013-0.674-0.034
		c-0.179-0.021-0.321-0.053-0.426-0.09c-0.106-0.038-0.178-0.087-0.224-0.146c-0.045-0.06-0.066-0.128-0.066-0.202V15.052h-0.021
		l-4.214,11.821c-0.029,0.099-0.078,0.18-0.144,0.243c-0.066,0.062-0.158,0.113-0.275,0.15c-0.116,0.038-0.262,0.061-0.444,0.072
		c-0.179,0.013-0.397,0.02-0.653,0.02c-0.256,0-0.472-0.011-0.652-0.028s-0.329-0.048-0.444-0.09
		c-0.117-0.041-0.209-0.093-0.276-0.152c-0.067-0.059-0.113-0.131-0.135-0.215l-4.069-11.82h-0.021v11.834
		c0,0.075-0.02,0.141-0.061,0.201c-0.043,0.06-0.119,0.109-0.232,0.146c-0.111,0.037-0.257,0.067-0.432,0.09
		c-0.177,0.021-0.404,0.034-0.68,0.034c-0.271,0-0.494-0.013-0.674-0.034c-0.179-0.021-0.325-0.053-0.434-0.09
		c-0.106-0.038-0.181-0.087-0.222-0.146c-0.042-0.059-0.061-0.126-0.061-0.201V13.929c0-0.382,0.1-0.675,0.303-0.876
		c0.203-0.202,0.473-0.304,0.81-0.304h1.933c0.342,0,0.641,0.029,0.888,0.085c0.249,0.058,0.461,0.149,0.641,0.283
		c0.178,0.131,0.331,0.302,0.45,0.515c0.12,0.214,0.225,0.478,0.315,0.793l3.146,8.664h0.044l3.261-8.643
		c0.099-0.315,0.204-0.58,0.318-0.797c0.117-0.217,0.253-0.394,0.405-0.529c0.153-0.137,0.335-0.23,0.546-0.289
		c0.211-0.056,0.455-0.084,0.731-0.084h1.991c0.202,0,0.376,0.027,0.522,0.079c0.145,0.052,0.264,0.13,0.36,0.23
		c0.093,0.101,0.165,0.225,0.214,0.372c0.048,0.145,0.073,0.313,0.073,0.499v12.958H66.228L66.228,26.885z"/>
	<path fill="#0072C6" d="M79.364,21.795c0,0.853-0.112,1.634-0.337,2.338c-0.223,0.704-0.566,1.313-1.022,1.819
		c-0.457,0.511-1.03,0.902-1.72,1.182c-0.691,0.276-1.495,0.416-2.416,0.416c-0.891,0-1.667-0.124-2.326-0.372
		c-0.659-0.248-1.206-0.606-1.64-1.079c-0.435-0.472-0.758-1.05-0.968-1.741c-0.21-0.689-0.315-1.477-0.315-2.358
		c0-0.854,0.114-1.638,0.342-2.345c0.227-0.708,0.571-1.315,1.028-1.821c0.455-0.504,1.026-0.897,1.713-1.173
		c0.687-0.278,1.488-0.416,2.411-0.416c0.899,0,1.68,0.121,2.337,0.366c0.659,0.244,1.205,0.602,1.635,1.074
		c0.431,0.471,0.752,1.05,0.962,1.742C79.257,20.112,79.364,20.903,79.364,21.795z M76.454,21.906c0-0.495-0.041-0.95-0.119-1.364
		c-0.08-0.416-0.214-0.777-0.4-1.087c-0.186-0.307-0.436-0.546-0.747-0.719c-0.312-0.172-0.702-0.257-1.173-0.257
		c-0.42,0-0.787,0.076-1.102,0.23s-0.573,0.378-0.774,0.674c-0.203,0.298-0.356,0.653-0.455,1.067
		c-0.099,0.416-0.152,0.891-0.152,1.423c0,0.494,0.042,0.949,0.124,1.365c0.083,0.415,0.216,0.776,0.398,1.084
		c0.183,0.308,0.434,0.546,0.748,0.713c0.315,0.171,0.704,0.256,1.167,0.256c0.428,0,0.799-0.078,1.112-0.231
		c0.315-0.153,0.573-0.375,0.775-0.668c0.202-0.294,0.352-0.646,0.45-1.062C76.406,22.912,76.454,22.439,76.454,21.906z"/>
	<path fill="#0072C6" d="M91.613,21.795c0,0.86-0.13,1.647-0.39,2.359c-0.258,0.713-0.625,1.318-1.1,1.82
		c-0.476,0.502-1.048,0.89-1.709,1.164c-0.662,0.273-1.4,0.411-2.209,0.411c-0.897,0-1.669-0.139-2.311-0.416
		c-0.639-0.277-1.167-0.694-1.584-1.254c-0.415-0.558-0.719-1.262-0.91-2.112c-0.19-0.85-0.285-1.849-0.285-2.995
		c0-0.83,0.043-1.614,0.13-2.351c0.085-0.735,0.214-1.405,0.382-2.017c0.168-0.61,0.376-1.146,0.625-1.605
		c0.246-0.461,0.5-0.83,0.765-1.108c0.262-0.276,0.517-0.499,0.764-0.669c0.246-0.169,0.521-0.319,0.82-0.45
		c0.301-0.131,0.632-0.245,1.001-0.343s0.77-0.179,1.205-0.248l3.575-0.517c0.135-0.016,0.244-0.02,0.332-0.011
		c0.087,0.007,0.151,0.05,0.196,0.128c0.044,0.079,0.074,0.203,0.091,0.373c0.017,0.169,0.021,0.402,0.021,0.7
		c0,0.211-0.007,0.392-0.021,0.545c-0.016,0.154-0.045,0.287-0.091,0.399c-0.045,0.112-0.105,0.2-0.184,0.264
		c-0.08,0.062-0.18,0.101-0.299,0.118l-3.303,0.495c-0.308,0.045-0.575,0.098-0.811,0.152c-0.233,0.057-0.437,0.12-0.611,0.19
		c-0.178,0.069-0.331,0.151-0.461,0.242c-0.13,0.09-0.259,0.198-0.388,0.326c-0.128,0.128-0.244,0.287-0.349,0.483
		c-0.104,0.195-0.195,0.409-0.27,0.643c-0.073,0.23-0.138,0.486-0.19,0.764c-0.052,0.277-0.101,0.566-0.146,0.865
		c0.202-0.209,0.43-0.402,0.68-0.579c0.252-0.178,0.52-0.327,0.805-0.45c0.283-0.125,0.585-0.221,0.904-0.294
		c0.318-0.073,0.653-0.107,1.008-0.107c0.731,0,1.371,0.117,1.917,0.348c0.544,0.233,0.993,0.568,1.349,1.008
		c0.355,0.439,0.62,0.968,0.797,1.596C91.524,20.289,91.613,21,91.613,21.795z M88.747,21.952c0-0.419-0.037-0.81-0.113-1.167
		c-0.074-0.359-0.194-0.671-0.359-0.932c-0.165-0.263-0.384-0.471-0.656-0.623C87.344,19.076,87.016,19,86.635,19
		c-0.256,0-0.491,0.032-0.708,0.097c-0.218,0.063-0.429,0.159-0.636,0.287c-0.206,0.127-0.411,0.281-0.612,0.46
		c-0.2,0.179-0.416,0.389-0.64,0.63c-0.008,0.091-0.012,0.188-0.012,0.293s0,0.215,0,0.326c0,0.704,0.041,1.317,0.124,1.839
		c0.083,0.521,0.216,0.953,0.399,1.298c0.181,0.343,0.422,0.601,0.719,0.765c0.296,0.164,0.655,0.247,1.085,0.247
		c0.381,0,0.725-0.074,1.022-0.219c0.3-0.145,0.55-0.359,0.753-0.642c0.202-0.279,0.355-0.624,0.46-1.033
		C88.694,22.931,88.747,22.469,88.747,21.952z"/>
	<path fill="#0072C6" d="M103.829,26.941c0,0.075-0.02,0.139-0.063,0.189c-0.041,0.054-0.114,0.099-0.218,0.132
		c-0.104,0.031-0.246,0.058-0.419,0.07c-0.18,0.017-0.398,0.022-0.669,0.022s-0.496-0.008-0.682-0.022
		c-0.183-0.014-0.333-0.039-0.45-0.07c-0.114-0.035-0.198-0.078-0.248-0.132c-0.048-0.052-0.074-0.115-0.074-0.189v-4.474
		c0-0.315,0.01-0.641,0.029-0.977c0.019-0.337,0.047-0.667,0.084-0.988c-0.18,0.315-0.376,0.623-0.584,0.928
		c-0.211,0.303-0.424,0.605-0.641,0.905l-3.384,4.598c-0.063,0.082-0.13,0.15-0.19,0.207c-0.06,0.057-0.136,0.101-0.229,0.135
		c-0.096,0.033-0.213,0.059-0.354,0.066c-0.14,0.012-0.327,0.019-0.55,0.019c-0.271,0-0.49-0.009-0.655-0.02
		c-0.172-0.018-0.302-0.041-0.405-0.074c-0.103-0.034-0.175-0.078-0.218-0.135c-0.04-0.059-0.059-0.121-0.059-0.197V16.873
		c0-0.066,0.019-0.129,0.059-0.183c0.041-0.059,0.117-0.102,0.227-0.14c0.107-0.037,0.25-0.066,0.426-0.085
		c0.177-0.02,0.398-0.027,0.669-0.027c0.532,0,0.908,0.038,1.125,0.112c0.219,0.075,0.324,0.183,0.324,0.326v4.45
		c0,0.306-0.012,0.624-0.032,0.956c-0.02,0.328-0.053,0.647-0.09,0.954c0.179-0.299,0.364-0.597,0.55-0.893
		c0.186-0.297,0.386-0.581,0.595-0.858l3.418-4.607c0.06-0.083,0.124-0.151,0.19-0.208c0.068-0.057,0.151-0.099,0.257-0.137
		c0.1-0.033,0.222-0.058,0.37-0.071c0.146-0.017,0.336-0.022,0.569-0.022c0.261,0,0.479,0.009,0.652,0.022
		c0.173,0.015,0.31,0.041,0.412,0.079c0.099,0.038,0.171,0.085,0.208,0.145c0.039,0.059,0.058,0.13,0.058,0.202v10.056h-0.005
		v-0.002H103.829z"/>
	<path fill="#0072C6" d="M114.101,17.748c0,0.248-0.009,0.455-0.029,0.619c-0.019,0.165-0.046,0.296-0.083,0.393
		c-0.039,0.098-0.086,0.166-0.139,0.203c-0.058,0.036-0.118,0.056-0.184,0.056h-2.529v7.889c0,0.074-0.021,0.139-0.067,0.196
		c-0.044,0.057-0.118,0.102-0.224,0.139c-0.104,0.037-0.248,0.064-0.434,0.086c-0.182,0.02-0.413,0.025-0.691,0.025
		c-0.269,0-0.494-0.01-0.673-0.025c-0.18-0.02-0.324-0.048-0.433-0.086c-0.109-0.038-0.184-0.085-0.225-0.139
		c-0.041-0.058-0.062-0.122-0.062-0.196v-7.889h-2.527c-0.075,0-0.14-0.021-0.196-0.061c-0.059-0.041-0.103-0.11-0.14-0.209
		c-0.037-0.098-0.063-0.23-0.083-0.405c-0.02-0.173-0.028-0.382-0.028-0.63c0-0.225,0.013-0.414,0.033-0.567
		c0.021-0.154,0.055-0.279,0.092-0.376c0.036-0.097,0.082-0.167,0.138-0.208c0.052-0.041,0.114-0.06,0.19-0.06h7.865
		c0.067,0,0.132,0.02,0.186,0.06c0.056,0.041,0.101,0.111,0.14,0.208c0.037,0.099,0.064,0.226,0.084,0.388
		C114.09,17.319,114.101,17.516,114.101,17.748z"/>
</g>
</svg>
